<?xml version="1.0" encoding="UTF-8" standalone="no"?>
<!DOCTYPE svg PUBLIC "-//W3C//DTD SVG 1.1//EN" "http://www.w3.org/Graphics/SVG/1.1/DTD/svg11.dtd">
<svg width="100%" height="100%" viewBox="0 0 636 632" version="1.1" xmlns="http://www.w3.org/2000/svg" xmlns:xlink="http://www.w3.org/1999/xlink" xml:space="preserve" xmlns:serif="http://www.serif.com/" style="fill-rule:evenodd;clip-rule:evenodd;stroke-linecap:round;stroke-miterlimit:10;">
    <g id="Plan-de-travail1" serif:id="Plan de travail1" transform="matrix(0.260995,0,0,0.561579,0,0)">
        <rect x="0" y="0" width="2436" height="1125" style="fill:none;"/>
        <clipPath id="_clip1">
            <rect x="0" y="0" width="2436" height="1125"/>
        </clipPath>
        <g clip-path="url(#_clip1)">
            <g transform="matrix(2.78781,0,0,1.78069,-807.653,-317.072)">
                <rect x="354.937" y="610.07" width="157.899" height="155.61"/>
            </g>
            <g transform="matrix(2.78781,0,0,3.43323,-251.628,-1582.38)">
                <rect x="354.937" y="610.07" width="157.899" height="155.61"/>
            </g>
            <g transform="matrix(2.78781,0,0,4.11985,848.385,-2108.12)">
                <rect x="354.937" y="610.07" width="157.899" height="155.61"/>
            </g>
            <g transform="matrix(2.78781,0,0,2.78056,310.672,-1082.65)">
                <rect x="354.937" y="610.07" width="157.899" height="155.61"/>
            </g>
            <g transform="matrix(4.04252,0,0,1.78069,-1253,-480.863)">
                <g transform="matrix(0.947798,-0,-0,1,309.954,270.042)">
                    <path d="M456.979,78.3L533.319,80.346L531.273,156.686" style="fill:none;stroke:black;stroke-width:36px;"/>
                    <path d="M102.648,267.347L243.155,134.174L387.355,218.69C387.355,218.69 490.354,121.068 533.319,80.346" style="fill:none;stroke:black;stroke-width:36px;stroke-linejoin:round;stroke-miterlimit:1.5;"/>
                </g>
            </g>
        </g>
    </g>
</svg>
