<?xml version="1.0" encoding="UTF-8" standalone="no"?>
<!DOCTYPE svg PUBLIC "-//W3C//DTD SVG 1.1//EN" "http://www.w3.org/Graphics/SVG/1.1/DTD/svg11.dtd">
<svg width="100%" height="100%" viewBox="0 0 636 632" version="1.1" xmlns="http://www.w3.org/2000/svg" xmlns:xlink="http://www.w3.org/1999/xlink" xml:space="preserve" xmlns:serif="http://www.serif.com/" style="fill-rule:evenodd;clip-rule:evenodd;stroke-linecap:round;stroke-linejoin:round;stroke-miterlimit:1.5;">
    <g transform="matrix(1,0,0,1,-751.067,-731.251)">
        <g id="Plan-de-travail1" serif:id="Plan de travail1" transform="matrix(0.260995,0,0,0.561579,751.067,731.251)">
            <rect x="0" y="0" width="2436" height="1125" style="fill:none;"/>
            <clipPath id="_clip1">
                <rect x="0" y="0" width="2436" height="1125"/>
            </clipPath>
            <g clip-path="url(#_clip1)">
                <g transform="matrix(3.83149,0,0,1.78069,19.8168,0)">
                    <path d="M575.36,593.107L38.921,593.107L38.921,66.563" style="fill:none;stroke:black;stroke-width:36px;"/>
                </g>
                <g transform="matrix(3.02998,0,0,2.16752,-667.236,-709.801)">
                    <rect x="354.937" y="610.07" width="157.899" height="155.61"/>
                </g>
                <g transform="matrix(3.02998,0,0,3.21536,-62.91,-1512.11)">
                    <rect x="354.937" y="610.07" width="157.899" height="155.61"/>
                </g>
                <g transform="matrix(3.02998,0,0,2.09193,548.237,-651.927)">
                    <rect x="354.937" y="610.07" width="157.899" height="155.61"/>
                </g>
                <g transform="matrix(3.9654,0,0,1.05087,-2942.17,-605.02)">
                    <g transform="matrix(0.966232,-0,-0,1.6945,741.962,575.735)">
                        <path d="M471.289,235.798L525.289,181.798L471.289,127.798" style="fill:none;stroke:black;stroke-width:36px;stroke-linejoin:miter;stroke-miterlimit:10;"/>
                        <path d="M190.514,235.798L136.514,181.798L190.514,127.798" style="fill:none;stroke:black;stroke-width:36px;stroke-linejoin:miter;stroke-miterlimit:10;"/>
                        <path d="M525.289,181.798L136.514,181.798" style="fill:none;stroke:black;stroke-width:36px;"/>
                    </g>
                </g>
            </g>
        </g>
    </g>
</svg>
